<?xml version="1.0" encoding="iso-8859-1"?>
<!-- Uploaded to: SVG Repo, www.svgrepo.com, Generator: SVG Repo Mixer Tools -->
<svg xmlns="http://www.w3.org/2000/svg" xmlns:xlink="http://www.w3.org/1999/xlink" version="1.1" id="Capa_1"  viewBox="0 0 505.847 505.847" xml:space="preserve" width="512" height="512">
<g>
	<path style="fill:#E95B2D;" d="M368.161,132.345c-16.584,11.342-39.219,7.092-50.56-9.492c-11.341-16.582-7.093-39.219,9.49-50.558   l7.151-4.892c-40.772-40.245-81.318-59.13-81.318-59.13S88.903,84.632,88.903,257.642c0,108.263,73.435,169.352,164.02,169.352   c90.585,0,164.02-61.089,164.02-169.352c0-53.409-15.641-97.598-37.253-133.182L368.161,132.345z"/>
	<path style="fill:#0F2639;" d="M386.101,120.566l-4.109-6.766l-18.064,12.354c-4.826,3.3-10.451,5.045-16.268,5.045   c-9.558,0-18.48-4.703-23.868-12.581c-4.354-6.366-5.969-14.047-4.546-21.627c1.423-7.58,5.712-14.152,12.08-18.506l14.66-10.028   l-6.475-6.392c-41.223-40.689-81.716-59.797-83.42-60.591L252.924,0l-3.167,1.475c-1.723,0.802-42.67,20.116-84.129,61.282   c-24.404,24.233-43.863,51.027-57.837,79.642c-17.51,35.856-26.389,74.63-26.389,115.243c0,53.53,17.399,98.711,50.317,130.656   c29.07,28.212,69.218,44.41,113.703,46.048v71.501h15v-71.501c44.485-1.638,84.633-17.836,113.703-46.048   c32.918-31.945,50.317-77.126,50.317-130.656C424.443,208.575,411.543,162.456,386.101,120.566z M347.659,146.199   c8.852,0,17.405-2.65,24.735-7.664l4.896-3.348c6.269,11.066,11.622,22.434,16.066,34.075L260.423,302.197V190.048l56.449-56.45   C325.002,141.594,336.018,146.199,347.659,146.199z M304.503,94.224c-1.742,9.277-0.484,18.651,3.526,27.003l-47.606,47.607V20.739   c13.28,7.532,37.238,22.634,61.967,45.688C312.974,73.042,306.63,82.892,304.503,94.224z M175.835,73.762   c27.333-27.229,54.952-44.725,69.588-53.023v83.953l-30.701-30.7l-10.606,10.607l41.307,41.306v130.885L126.858,138.225   C139.456,115.275,155.885,93.635,175.835,73.762z M142.167,377.533c-29.939-29.054-45.764-70.512-45.764-119.892   c0-37.066,7.855-72.486,23.308-105.351l125.712,125.711v85.48l-52.084-52.084l-10.606,10.607l62.691,62.689v34.644   C204.878,417.726,168.438,403.029,142.167,377.533z M363.68,377.533c-26.271,25.496-62.711,40.192-103.256,41.806v-95.928   l138.351-138.353c7.09,23.25,10.669,47.507,10.669,72.583C409.443,307.022,393.619,348.479,363.68,377.533z"/>
	<path style="fill:#0F2639;" d="M379.443,257.642c0,41.077-12.676,75.091-36.657,98.363l10.446,10.764   c26.96-26.163,41.21-63.898,41.21-109.127H379.443z"/>
	
		<rect x="131.176" y="274.609" transform="matrix(-0.7071 -0.7071 0.7071 -0.7071 62.4672 590.0926)" style="fill:#0F2639;" width="44.532" height="15"/>
</g>















</svg>